<?xml version="1.0" encoding="UTF-8"?>
<svg id="Layer_1" xmlns="http://www.w3.org/2000/svg" version="1.1" viewBox="0 0 1688.82 258.24">
  <!-- Generator: Adobe Illustrator 29.5.1, SVG Export Plug-In . SVG Version: 2.1.0 Build 141)  -->
  <defs>
    <style>
      .st0 {
        fill: #e53f0c;
      }
    </style>
  </defs>
  <path class="st0" d="M241.58,249.35l-7.7-15.54h-101.23l7.15,17.9h102.95l-1.17-2.36h0ZM224.16,214.17c-1.62-3.24-3.04-6.07-4.31-8.61h-98.3l1.04,3.1,7.04,17.58h100.51l-5.97-12.07h-.01,0ZM11.07,205.56l-4.96,20.68h92.01l2.09-8.63c.8-3.67,1.62-7.8,2.4-12.05,0,0-91.54,0-91.54,0ZM4.29,233.81l-4.29,17.9h91.94l4.34-17.9s-91.99,0-91.99,0ZM254.12,30.99c-12.75-7.58-23.77-8.95-65.77-8.95H55.09L12.89,197.99h91.04c1.95-11.58,3.37-22.44,3.16-25.49h2.06c2.76,8.61,3.8,11.36,5.52,15.83,1.52,3.31,2.86,6.44,4.15,9.65h97.22c-3.45-6.87-5.97-11.73-9.79-18.95-4.12-7.58-8.26-14.8-12.04-22.37,17.55-2.42,27.53-5.17,38.21-11.02,25.14-13.77,42.7-45.46,42.7-77.48,0-16.87-6.88-29.27-20.99-37.18h-.01ZM171.48,120.85c-7.23,8.95-16.53,11.71-40.64,11.71h-10.32l11.36-48.2h9.3c32.37,0,37.88,2.4,37.88,15.15,0,7.92-2.76,15.83-7.58,21.34h0Z"/>
  <path class="st0" d="M252.09,205.56l-4.96,20.68h194.19l4.96-20.68h-194.19ZM245.31,233.81l-3.72,15.54-.57,2.36h194.21l4.29-17.9h-194.21,0ZM474.47,88.5l15.83-66.47h-194.19l-42.2,175.96h194.18l.91-3.8h-105.71l6.2-26.51h106.05l12.39-51.65h-106.05l6.54-27.53h106.05,0Z"/>
  <path class="st0" d="M694.13,121.21c15.85-11.71,27.21-36.5,27.21-58.53,0-13.77-4.48-24.45-13.09-30.65-11.36-7.92-22.71-9.99-60.94-9.99h-143.24l-42.2,175.96h88.57l8.73-35.82h24.79c24.09,0,29.61,2.76,29.61,14.13,0,10.12-4.85,17.55-13.97,21.69h93.87c2.87-8.36,4.46-17.13,4.46-25.83,0-13.43-5.17-22.73-15.15-28.93-5.52-3.1-8.95-4.14-25.13-6.54l.34-1.38c17.21-3.8,27.89-7.92,36.15-14.11h-.01ZM619.42,115.35c-6.2,3.44-10.67,4.14-28.93,4.14-4.48,0-12.05,0-21.01-.34l9.3-38.92h25.49c23.07,0,27.89,2.42,27.89,13.43,0,8.95-4.82,17.21-12.74,21.69ZM460.05,205.56l-4.96,20.68h222.27c5.26-6.1,9.71-13.13,13.11-20.68h-230.42ZM453.27,233.81l-4.29,17.9h149.77c28.24,0,45.12-2.76,57.5-8.61,4.83-2.42,9.41-5.56,13.63-9.28h-216.61Z"/>
  <path class="st0" d="M937.21,35.81c-17.21-14.46-39.59-20.31-78.16-20.31-52.34,0-87.46,10.33-110.51,32.71-28.24,26.51-46.14,75.75-46.14,125,0,9.03.74,17.28,2.26,24.79h220.87c20.78-31.75,33.72-72.46,33.72-109.15,0-22.05-8.26-41.32-22.03-53.03h0ZM852.16,169.07c-8.95,14.46-19.29,20.65-34.78,20.65-18.24,0-28.23-9.98-28.23-28.23,0-15.15,4.82-35.46,11.36-47.18,7.93-14.46,20.67-22.03,37.88-22.03,19.29,0,28.93,8.95,28.93,26.86,0,13.76-6.89,36.49-15.15,49.92h-.01ZM722.8,233.81c16.19,16.13,42.3,23.74,79.43,23.74,40.28,0,69.44-7.42,91.23-23.74h-170.66ZM706.53,205.56c2.29,7.8,5.56,14.7,9.86,20.68h186.01c.71-.68,1.41-1.38,2.1-2.08,5.6-5.6,10.89-11.85,15.81-18.61h-213.78,0Z"/>
  <path class="st0" d="M1038.78,185.6c0-3.1,0-3.8,4.12-22.05l33.74-140.48-91.94-1.04-29.61,123.26c-5.51,23.42-8.26,39.6-8.26,50.62,0,.7,0,1.39.01,2.08h105.28c-8.13-1.25-13.36-5.96-13.36-12.39h.02ZM947.31,205.56c.81,7.83,2.67,14.71,5.67,20.68h196.31c5.42-5.56,9.88-12.22,13.84-20.68h-215.83.01ZM957.79,233.81c13.28,16.96,39.19,24.43,80.64,24.43,37.18,0,67.49-5.86,89.88-17.21,4.46-2.23,8.49-4.61,12.14-7.22h-182.66ZM1121.75,23.08l-33.73,140.48c-3.8,15.15-6.21,21.35-11.37,26.51-3.89,4.18-9.38,7.01-15.52,7.93h105.24c3.64-9.35,6.88-20.62,10.13-34.44l33.74-140.48h-88.5.01Z"/>
  <path class="st0" d="M1181.36,205.56l-4.96,20.68h85.71l4.95-20.68h-85.7ZM1174.58,233.81l-4.29,17.9h85.74l4.28-17.9h-85.73ZM1302.21,205.56l5.53,20.68h105.21l4.96-20.68h-115.7ZM1309.77,233.81l4.79,17.9h92.28l4.29-17.9h-101.36ZM1377.91,22.04l-11.02,46.14c-5.86,23.77-9.99,46.14-11.37,59.57h-1.72c-4.48-29.95-6.54-38.9-14.46-68.17l-9.3-37.54h-104.67l-42.2,175.96h85.68l4.04-16.87c5.84-23.41,9.64-46.14,9.3-54.75h1.72c4.48,22.39,11.36,52.68,16.18,71.27l.1.36h119.54l42.2-175.96h-84.02Z"/>
  <path class="st0" d="M1433.04,205.56l-4.96,20.68h202.14c7.25-5.81,13.92-12.72,19.96-20.68h-217.14ZM1421.96,251.71c23.77.34,48.56.34,56.13.34,67.15,0,91.94-1.04,109.15-5.17,11.68-2.66,22.43-7.01,32.24-13.06h-193.23l-4.29,17.9h0ZM1670.23,40.99c-14.11-14.13-33.4-18.95-77.13-18.95h-116.04l-42.2,175.96h220.69c2.12-3.18,4.14-6.51,6.08-9.99,15.48-27.89,27.19-69.89,27.19-97.78,0-19.63-6.54-37.18-18.59-49.24h0ZM1582.07,167.01c-9.62,14.11-24.43,20.65-47.84,20.65h-7.93l22.39-92.97h11.36c27.55,0,36.5,5.86,36.5,23.08,0,15.14-6.54,37.53-14.47,49.24h-.01Z"/>
</svg>