<?xml version="1.0" encoding="UTF-8"?><svg id="Layer_3" xmlns="http://www.w3.org/2000/svg" viewBox="0 0 387.62 411.42"><defs><style>.cls-1,.cls-2{fill-rule:evenodd;}.cls-1,.cls-3{fill:#fff;}.cls-4{fill:#641f18;stroke-width:1.9px;}.cls-4,.cls-2{stroke:#641f19;}.cls-4,.cls-2,.cls-5{stroke-miterlimit:10;}.cls-2{fill:none;}.cls-2,.cls-5{stroke-width:1.79px;}.cls-5{stroke:#fff;}.cls-5,.cls-6{fill:#641f19;}</style></defs><path class="cls-6" d="M11.5,115.77c4.85,2.09,4.79,8.58,2.62,11.5.4-3.05-3.22-6.36-5.59-7.38-2.96-1.27-4.75.13-5.67,2.26-2.32,5.38,3.93,11.72,9.85,14.26,1.42.61,3.63,1,4.71.62.32-.91,1.12-2.6,1.89-3.74,1.14-1.68,1.78-1.69,2.17-1.45.42.32.39,1.22-.19,2.23-.73,1.37-2.39,3.6-3.74,4.63-1,7.21,7.71,20.21,13.68,22.78,2.84,1.22,4.89.84,6.34-2.53,1.27-2.96,1.02-6.43-.05-10.47-.96-3.64-2.43-6.58-4.63-8.79,2.86,1.65,5,4.67,6.05,8.42,1.05,3.75.79,7.77-.79,11.44-3.05,7.1-7.52,11.28-14.73,8.17-8.28-3.56-11.73-15.42-6.89-28.13-3.65,3.76-7.96,4-10.94,2.3-5.99-3.35-7.14-11.42-3.56-19.75,1.32-3.08,4.86-8.35,9.47-6.37Z"/><path class="cls-6" d="M26.78,125.66c-.42-.29-.84-.26-1.13.16-.69,1.01-.29,3.16.57,5.54-1.97-2.37-2.76-7.13-.35-10.63,1.64-2.39,3.72-2.68,5.41-1.51,1.17.8,2.29,2.59,2.89,4.33.1.31.32.22.27-.05-1.68-5.06-3.21-10.33-.74-13.94,1.49-2.18,3.67-3.18,6-1.58,1.06.73,2.09,2.53,2.56,3.79.16.34.35.17.27-.05-1.68-5.06-3.21-10.33-.74-13.94,1.49-2.18,3.94-3.23,6.27-1.63,1.96,1.35,3.26,4.12,4.87,8.26,1.9,4.97,3.09,7.67,4.47,8.62.53.36,1.33.45,1.88-.35.66-.96.83-3.02.01-6.16-.76-2.87-1.61-4.93-2.75-7.36,1.42,1.68,2.69,4.5,3.43,7.28.85,3.32,1.03,6.57-.97,9.49-2.11,3.08-4.85,3.31-7.19,1.7-2.18-1.49-3.64-4.14-5.29-8.79-1.43-3.95-2.78-7.22-3.78-7.91-.32-.22-.69-.24-.98.18-.8,1.17-.5,4.81,1.56,11.15,1.05,3.14,2.67,7.15,4.18,10.29,1.44,3.02,2.82,5.22,3.43,5.01-1.75,2.32-4.49,3.24-7.09,1.46-1.59-1.09-3.33-3.23-4.47-6.12-1.73-4.31-3.39-9.28-4.72-10.19-.32-.22-.69-.24-.98.18-.8,1.17-.5,4.81,1.56,11.15,1.05,3.14,2.67,7.14,4.18,10.29,1.44,3.02,2.82,5.22,3.43,5.01-1.75,2.32-4.49,3.24-7.09,1.46-1.59-1.09-3.17-3.12-4.44-5.94-1.87-4.1-3.37-8.4-4.53-9.21Z"/><path class="cls-6" d="M61.94,86.6c-.63-3.46-1.31-8.61,1.47-11.38,2.23-2.23,4.74-2.27,6.97-.04,2.09,2.1,3.91,5.74,4.54,9.75,1.22,7.7-.75,14.02-5.4,18.66-4.79,4.77-9.52,3.49-11.88-2.79-1.18-3.1-2.27-7.83-3.35-12.39-.86-3.69-1.9-9.02-2.4-12.43-.5-3.51-.4-4.33.87-5.6.64-.64,1.92-1.82,2.87-2.77,1.87-1.86.64-4.64,1.28-5.28.9,6.56,3.34,18.76,4.66,24.27.09.46.45.46.36,0ZM67.07,102.59c.55.55,1.32.96,2.14.14,1.32-1.32.69-4.69-1.39-13.43-1.4-5.88-2.76-9.7-3.72-10.66-.41-.41-.82-.46-1.23-.05-.87.86-1.05,4.14-.02,11.38.72,3.28,2.08,10.48,4.22,12.62Z"/><path class="cls-6" d="M92.44,77.08c.22-2.04.13-5.95-1.6-7.46.48.2.99.54,1.38,1.05,1.02,1.33,1.99,3.43,1.5,6.48-.53,3.33-2.26,6.46-5.12,8.65-4.03,3.1-7.63,2.86-10.22-.5-2-2.6-3.29-7.54-2.81-12.3.69-6.71,4.22-11.62,7.33-14.01,2.55-1.96,5.22-1.98,6.75,0,2.59,3.37.44,8.28-3.39,11.22-1.02.79-2.3,1.12-3.09.84.3,5.46,1.86,10.44,3.15,12.12,1.06,1.38,2.2,1.48,3.42.54,1.07-.82,2.38-3.46,2.7-6.63ZM83.78,59.28c-1.12.86-.91,4.2-.89,7.18.04,1.11.13,2.91.24,4.12.48.2,1.04.09,1.49-.17,2.45-1.56,1.94-8.56.25-10.76-.43-.56-.74-.65-1.1-.37Z"/><path class="cls-6" d="M103.19,73.06c.4.66.91,1.03,1.6.92-3.9,2.77-7.04,2.02-8.65-.69-.99-1.66-1.58-4.16-1.54-7.25.02-4.5.46-9.04-.26-10.26-.26-.44-.65-.59-1.09-.32-1.05.63-1.59,2.74-1.81,5.27-.8-2.97.48-7.63,4.13-9.8,2.49-1.48,4.5-.88,5.55.89.72,1.22.99,3.31.81,5.14-.06.41.23.39.26.07.46-5.52.95-10.61,4.11-12.48,2.21-1.32,4.33-1.16,5.52.84,2.17,3.65.21,8.04-2.44,9.62-1.55.92-2.83,1.16-3.82,1,.94-.56,1.39-6.22.37-7.94-.26-.44-.57-.33-.79-.2-1.16.69-1.67,3.62-2.44,10-.55,5.12-.98,12.57.51,15.21Z"/><path class="cls-6" d="M164.96,44.64c2.4-2.88,3.8-6.69,2.91-9.85-.73-2.6-4.62-5.72-7.9-5,5.01-2.41,7.64-.68,8.73,3.23,1.19,4.21-.38,8.87-2.83,12.3,1.9,1.27,4.23,1.95,6.21,1.4,2.23-.63,3.53-1.73,4.26-4.34.16,3.17-2.23,5.64-5.57,6.58-2.54.71-5.28.48-7.91-.31-2.98,2.71-6.92,4.89-11.09,6-9.29,2.41-14.47-.08-15.28-6.54-.74-5.95,3.82-10.44,10.84-16.16-1.11-2.76-1.83-5.57-1.91-8.69-.17-6.31,4.67-12.15,10.81-13.88,3.41-.96,8.37-.68,8.55,4.01.07,2.86-1.69,5.63-5.07,8.85-2.43,2.29-4.38,3.91-6.34,5.53,1.36,3.63,3.38,7.27,5.34,9.94,1.43,2,3.72,4.91,6.23,6.94ZM147.57,32.54c-2.98,3.45-3.83,7.77-3.07,11.9.9,5.1,5.33,7.53,10.17,6.44,2.2-.49,4.47-1.46,6.49-2.83-3.1-1.27-5.86-3.7-8.8-7.49-1.65-2.08-3.54-5.22-4.8-8.01ZM156.37,10.07c-3.72,1.05-4.88,5.25-4.72,10.09.04,2.06.6,4.51,1.5,7,1.11-1.05,2.2-2.16,3.35-3.55,1.84-2.26,3.63-6.84,3.24-9.88-.31-2.52-1.39-4.22-3.37-3.67Z"/><path class="cls-6" d="M210.98,10.35c-.06,3.54,1.89,6.6,3.75,10.81,1.93,4.35,2.59,7.25,2.34,10.73-.6,9.52-9.16,17.05-19.78,16.87-4.57-.07-12.48-1.1-12.37-7.48.08-4.89,4.83-8.16,9.4-8.09,1.54.02,3.34.38,4.54,1.75-.51-.14-.96-.21-1.41-.22-3.48-.06-6.62,2.98-6.68,7.17-.08,4.83,3.12,6.23,6.66,6.29,8.24.13,11.76-6.57,11.84-11.72.07-4.06-1.25-6.4-4.11-12.37-1.56-3.24-2.03-6.21-1.99-8.53.12-7.21,6.34-13.68,14-13.55,2.19.04,3.85.64,4.35,2-.82-.91-2.17-1.06-3.33-1.08-3.99-.06-7.13,2.78-7.2,7.42ZM216.1,0c7.4.12,12.37,3.68,12.28,8.96-.08,4.83-4.49,6.88-7.19,6.84-1.16-.02-1.99-.23-2.76-.75,3.16-.46,5.92-3.45,5.97-6.99.08-4.76-3.03-7.78-10.43-7.83.58-.12,1.29-.24,2.13-.22Z"/><path class="cls-6" d="M232.13,42.58c.2-1.21.75-2.16,1.09-2.62.16-.17.06-.38-.17-.16-.72.79-2.39,2.6-3.68,3.63-2.11,1.67-3.83,2.62-6.31,2.21-3.62-.61-5.14-2.82-4.53-6.5.54-3.24,3.05-7.32,7.02-10.38,5.86-4.57,10.91-5.88,15.61-5.09,1.71.29,3.28,1.07,2.72,3.26.81.59,2.83,1.06,5.24,1.46,3.37.56,4.69-1.89,5.35-1.52-4.43,4.61-10.21,11.09-12.85,14.37-1.4,1.72-2.36,3.2-2.53,4.21-.11.63.11,1.32,1.06,1.48,1.14.19,3.02-.47,5.52-2.54,2.28-1.9,3.79-3.54,5.51-5.61-.92,2-2.95,4.34-5.15,6.19-2.65,2.17-5.52,3.71-9.01,3.13-4.06-.68-5.32-2.91-4.89-5.52ZM242.65,24.95c-2.41-.4-8.71,6.38-10.87,8.76-1.85,2.11-6.65,7.37-7.05,9.79-.1.57.17.94.68,1.03.76.13,2.02-.38,4.15-2.18,2.73-2.29,8.05-8.32,9.5-9.97l4.06-4.74c.5-1.42.42-2.54-.46-2.69Z"/><path class="cls-6" d="M279.03,37.63c2.88.94,4.84-1.32,5.27-.78-1.4.96-6.03,4.73-9.58,7.9-4.12,3.66-8.07,7.85-12.82,11.38-4.59,3.44-8.17,4.84-11.76,5.69-3.82.91-7.74.64-10.98-.42-3.85-1.27-6.9-3.35-6.07-5.86.7-2.14,3.25-2.86,6.43-1.82,1.53.5,2.59,1.19,3.33,1.84-1.85-.13-3.46,1.44-3.86,2.66-.46,1.41.09,2.4,1.5,2.86,1.1.36,3.93.82,11.07-5.44,2.68-2.37,7.69-6.69,10-8.98.18-.14.12-.37-.14-.18-.83.68-2.76,2.21-4.18,3.03-2.33,1.33-4.19,2.01-6.57,1.23-3.49-1.15-4.66-3.56-3.49-7.11,1.02-3.12,4.12-6.78,8.51-9.2,6.48-3.63,11.95-4.21,16.38-2.62,1.63.6,2.86,1.62,2.01,3.57.82.81,2.82,1.54,4.96,2.24ZM273.15,33.26c-2.33-.76-9.59,5.05-12.06,7.02-2.21,1.78-7.69,6.28-8.45,8.61-.18.55.02.96.51,1.12.73.24,2.06-.07,4.43-1.53,3.05-1.85,9.21-7,10.9-8.42l4.73-4.07c.65-1.14.87-2.43-.05-2.73Z"/><path class="cls-6" d="M287.78,60.34c1.92-.72,5.38-2.56,5.95-4.78.04.52-.04,1.12-.32,1.7-.73,1.51-2.17,3.32-5.12,4.25-3.21,1.03-6.78.88-10.03-.68-4.58-2.21-5.99-5.53-4.14-9.35,1.42-2.96,5.26-6.33,9.73-8.04,6.3-2.4,12.27-1.45,15.81.25,2.9,1.4,4.12,3.77,3.03,6.03-1.84,3.83-7.2,4.11-11.55,2.02-1.16-.56-2.04-1.55-2.14-2.39-4.74,2.72-8.49,6.35-9.41,8.26-.75,1.57-.33,2.63,1.06,3.3,1.22.59,4.16.57,7.13-.57ZM299.78,44.61c-1.28-.61-4.16,1.07-6.82,2.44-.97.53-2.54,1.42-3.57,2.07.04.52.39.97.83,1.25,2.5,1.49,8.52-2.12,9.72-4.61.31-.64.25-.95-.16-1.15Z"/><circle class="cls-4" cx="203.68" cy="227.48" r="168.24"/><circle class="cls-5" cx="203.68" cy="225.92" r="158.47"/><path class="cls-3" d="M61.41,227.07c.29.07.59.15.94.24.36-1.74.72-3.43,1.13-5.22.84.06,1.48.1,2.23.14-.19-2.07-.34-4.05-.47-6.03.19-.05.37-.11.56-.16.8,4.02.96,8.38,3.05,12.36.72-3.61.54-6.98,2.3-9.67.19-.29.65-.33,1.06-.52,1.27,8.4,2.98,16.49,5.15,24.4.12-.02.24-.03.35-.05.22-1.03.38-2.08.7-3.06.24-.73.58-1.51,1.07-2.04.74-.79,1.61-.8,2.17.21.36.64.68,1.38.78,2.13.87,6.76,1.9,13.49,2.17,20.43.14,3.62,1.23,6.95,2.57,10.17.69,1.66,1.52,3.2-.13,5.06,3.08,4.46,6.29,8.7,9.68,12.77-3.01-7.02-4.33-14.46-4.98-21.93-.02-.26-.07-.52-.06-.78.17-3.61.32-7.14-1.21-10.41-.13-.29-.15-.67-.16-1.02-.22-5.63-.5-11.27.12-16.84.43-3.92,1.87-7.76,3-11.56.12-.41.33-.81.56-1.17.63-1,1.27-1.06,1.71-.12.6,1.27.93,2.62.69,4.24-.35,2.34-.58,4.7-.67,7.05-.05,1.34.31,2.65.3,3.99-.04,5.14.14,10.28-.65,15.54-.09.59-.05,1.21.02,1.79.24,1.93-.12,3.47-2.29,3.98-.08,1.48-.3,2.88-.16,4.23.61,5.51,1.39,11.05,2.73,16.46.79,3.17,2.16,6.19,3.59,9.12.62,1.26,1.79,2.22,3.09,3.04-.96-2.14-1.89-4.29-2.77-6.46.15-.08.3-.16.44-.24.78,1.47,1.57,2.92,2.39,4.36.08-.04.16-.07.24-.11-.57-1.94-1.11-3.89-1.61-5.84-1.14-4.45-2.05-8.97-1.79-13.59.12-2.03.75-4.06,1.26-6.05.32-1.25,1.23-1.93,2.34-1.79,1.06.13.98,1.26,1.17,2.16.56,2.69,1.16,5.38,1.97,7.99,1.08,3.45,1.42,7.05,1.88,10.67.42,3.37,1.09,6.71,1.67,10.07.31,1.77.37,3.6.7,5.37.15.8.44,1.73.98,2.25,4.83,4.67,10,8.97,15.39,12.98.13.1.29.15.73.35-.57-.75-.99-1.27-1.36-1.81-2.82-4.13-5.53-8.31-7.86-12.7-1.35-2.54-1.98-5.35-2.11-8.3-.1-2.45-.54-4.86-.76-7.29-.02-.25-.1-.52-.05-.75.14-.54.35-1.07.53-1.6.53.22,1.25.27,1.55.67.98,1.34,2.08,2.58,2.11,4.55.03,1.95.66,3.77,1.84,5.3.1.13.19.27.26.42,3.25,6.74,6.99,13.28,11.06,19.68.98,1.55,1.58,3.34,1.09,5.29-.25,1,.02,1.81.89,2.44.69.5,1.32,1.08,2.02,1.56,3.75,2.54,7.59,4.97,11.61,7.14,7.14,3.86,14.68,7.1,22.41,10.02,4.61,1.74,9.72,2.1,14.47,3.44,5.01,1.41,10.22,2.44,15.53,3.12,13.4,1.7,27.33.12,41.33-1.49,1.23-.14,3.03-.32,3.66.57-3.13.9-6.45,1.23-9.6,1.64-7.16.93-14.27,1.49-21.31,1.7-5.98.17-11.17,1.15-17.15,2.13-.39,4.92-4.85,8.14-7.79,11.96-3.33,1.63-4.92,4.39-7.13,6.78-.94,1.01-2.49,1.7-3.83,2.45-1.92,1.08-3.88,2.14-5.92,3.06-1.03.46-2.25.66-3.54,1.01-.72-2.08-.24-3.85,1.07-5.5,1.21-1.53,2.53-3,3.7-4.55,2.26-2.98,4.44-6.02,6.81-9.37-1.03.58-1.77.92-2.44,1.36-3.55,2.33-7.54,3.96-11.68,5.41-3.72,1.3-7.21,3.11-10.83,4.64-2.7,1.14-5.18.83-7.56-.84-.94-.66-1.26-1.33-.84-2.19.66-1.37,1.26-2.7,2.98-3.51,3.63-1.71,7.09-3.68,10.6-5.56.8-.43,1.77-.71,2.7-.85,4-.63,7.87-1.65,11.51-3.26.59-.26,1.29-.44,1.93-.46,4.25-.12,8.51-.41,12.77-.62,2.59-.13,4.58-1.03,6.29-3-.69-.2-1.24-.42-1.83-.53-5.67-1.04-11.25-2.29-16.69-3.83-4.29-1.22-8.68-1.45-13.22-1.59-2.88-.09-5.73-.87-8.5-1.6-3.04-.81-5.99-1.89-9.1-3.02-2.44,4.13-6.8,5.65-11.25,6.97-.52.15-1.01.4-1.46.67-1.81,1.11-3.86,1.59-6.09,1.29-3.71-.49-7.02.26-10.27,1.54-1.51.59-3.06,1.1-4.6,1.64-2.12.74-4.34.76-6.63.08-1.4-2.22,2.38-2.73,1.2-4.67,1.77-1.18,3.42-2.41,5.18-3.49,6.58-4.03,13.53-6.57,21.73-6.2,1.17.05,2.34.04,3.62-.26-7.3-3.15-14.36-6.78-20.91-10.69-1.04.43-1.69.89-2.4.95-5.17.43-10.42,1.08-15.66.45-7.83-.95-15.81-2.3-23.27-6.27-2.68-1.42-5.46-2.62-8.01-4.34-1.55-1.04-2.83-2.68-4.14-4.14-.27-.3-.29-.86-.5-1.54.67,0,1.17-.17,1.61,0,3.16,1.22,6.33,2.44,9.52,3.48,5.87,1.91,11.78,3.53,17.72,4.7,3.39.67,6.8.97,10.31.92-.38-.23-.75-.5-1.15-.69-6.84-3.36-14.17-4.99-21.06-8.36-2.77-1.36-5.38-3.18-8.01-4.9-1.16-.76-2.27-1.68-3.48-2.31-2-1.05-3.38-2.64-4.09-4.94-.29-.93-.66-1.84-.98-2.76-.74-2.17-.28-2.9,1.73-2.48,1.06.22,2.18.72,3.11,1.4,5.79,4.2,11.89,7.69,17.53,12.07.42.32.94.49,1.28.66-3.51-3.51-6.95-7.26-10.29-11.13-1.6-1.85-2.32-4.07-2.53-6.42-.14-1.57.89-2.18,2.11-1.21,1.67,1.33,3.23,2.83,4.8,4.31,5.42,5.1,11.08,9.85,16.98,14.2,3.19,2.36,6.55,4.46,9.73,6.79,1.43,1.05,2.43,2.75,3.61,4.17.45.54.8,1.16,1.14,1.77,1.85,3.32,5.29,4.6,8.4,6.26,2.04,1.09,4.05,2.22,6.1,3.29,4.72,2.46,9.41,5.04,14.72,6.24,1.71.39,3.3,1.37,5.2.87.28-.07.81.08.98.29,1.87,2.36,4.91,2.52,7.62,3.16,3.21.76,6.5,1.21,9.78,1.66.26.03.53,0,1.44-.04-1.01-.47-1.49-.72-1.99-.93-10.35-4.27-20.12-9.47-29.27-15.47-1.11-.73-2.12-1.82-3.88-1.09-.25-2.3-1.98-3.36-3.64-4.57-5.22-3.76-10.12-7.92-14.92-12.18-1.84-1.63-3.92-2.98-5.83-4.55-.79-.65-1.59-1.3-2.3-2.05-2.96-3.11-5.77-6.36-8.29-9.46-3.17.15-6.02.21-8.77-.97-2.8-1.2-5.6-2.45-8.31-3.94-5.65-3.11-10.24-8.09-14.9-12.87-1.7-1.73-3-3.99-3.35-6.73-.37-2.89.68-3.84,2.98-2.74.21.1.43.14.48.16-.81-1.91-1.67-3.88-2.38-5.91-.27-.78-.35-1.69-.33-2.52.04-1.56,1.03-2.18,2.12-1.28,3.3,2.72,6.67,5.17,9.3,8.85,2.51,3.51,5.27,6.75,8.11,9.88.91,1.01,1.99,1.82,3.36,2.37-2.61-5.01-4.9-10.21-7.25-15.37-.82-1.79-2.1-3.48-3.49-4.74-4.39-3.99-7.83-9.07-10.98-14.5-2.04-3.5-3.98-7.06-4.71-11.36-.11-.66-.03-1.62.29-2.09.56-.8,1.36-.8,2.02.05-.59.4-1.5.75-1.13,1.79,1.07,3,1.6,6.41,4.01,9.07-.86-4.03-.9-7.82-2.93-10.89Z"/><path class="cls-3" d="M93.25,246.43c.22.86.44,1.72.67,2.57-1.35-.33-1.24-1.36-1.25-2.32.2-.08.39-.17.58-.25Z"/><path class="cls-3" d="M244.51,346.28c-8,.88-15.52-.13-22.83-1.6.56-.15,1.11-.32,1.67-.45,1.9-.44,3.8-.89,5.68-1.38.34-.09.67-.23,1.01-.27,5.3-.64,10.38-2.47,15.35-4.44.94-.37,2.02-.39,2.98-.77,3.82-1.52,7.58-3.18,11.23-5.04,1.15-.58,2.07-1.58,3.2-2.2,3.68-2.06,7.47-3.84,11.26-5.66,1.06-.51,2.14-.99,3.13-1.62,2.13-1.34,4.36-2.05,6.65-2.49,3.52-.68,7.01-1.1,10.38-.94,1.82.09,3.38.68,4.44,1.79,1.32,1.37,2.88,2.44,4.91,3.02,2.66.75,5.15,1.78,8.24,1.9,3.17.12,6.36-.54,9.75-2.66,3.63-2.28,7.09-4.85,10.19-7.93,3.75-3.73,7.38-7.59,10.86-11.57.9-1.03,1.42-2.08,1.28-3.13-.17-1.2-1.01-1.62-2.29-.86-4,2.38-8.06,4.33-12.04,6.91-3.6,2.33-7.46,3.92-11.25,4.82-3.03.72-6,1.16-8.87,1.16-1.3,0-2.87.53-4.28,1.07-2.01.77-4,1.72-5.99,2.62-2.48,1.12-4.9,1.82-7.37,1.79-2.03-.02-4.19.36-6.41.51,2.63-1.52,5.17-3.09,7.72-4.67.57-.35,1.25-.52,1.88-.77,1.39-.56,2.78-1.13,4.17-1.74,1.78-.78,3.46-1.37,5.28-1.26,2.46.15,4.96.16,7.32.59,2.28.42,4.87-.56,7.34-1.56,1.95-.79,3.88-1.97,5.77-3.13,6.68-4.1,12.45-9.7,16.99-16.26,1.89-2.72,3.31-5.69,4.72-8.61.46-.96.64-2.03.75-3.01.16-1.47-1.38-2.04-2.61-.98-.93.8-1.76,1.77-2.58,2.72-3.01,3.47-6.07,6.88-9.31,10.1-3.11,3.08-6.81,4.81-10.41,6.61-3.54,1.77-7.01,3.6-10.28,6.13-1.96,1.51-4.05,2.82-5.98,4.4-.36.3-.85.46-1.28.66-2.06.97-4.13,1.89-6.2,2.77-.06.03-.13.05-.19.08-3.25,1.41-6.6,2.23-9.58,4.55-.04-.11-.09-.22-.13-.33,3-1.92,5.94-3.93,8.84-6.02.67-.49,1.38-.93,2.02-1.46,5.44-4.41,10.66-9.1,15.54-14.12,1.72-1.77,3.56-3.2,5.57-4.57,2.83-1.94,5.54-4.14,8.24-6.35.51-.42.9-.92,1.65-.79,1.95.33,3.84-.65,5.48-2.57,1.5-1.75,2.91-3.59,4.41-5.33,3.5-4.05,7.15-7.91,11.07-11.55.63-.58,1.24-1.23,1.77-1.93.24-.31.27-.8.55-1.7-.7.63-1,.87-1.27,1.16-2.16,2.24-4.35,4.42-6.56,6.55-3.74,3.61-7,7.59-10.24,11.62-1.22,1.51-2.58,2.4-4.39,2.37.3-.47.49-.88.78-1.2,4.82-5.38,9.74-10.57,14.91-15.76,2.16-2.16,4.52-4.29,6.2-7.08.58-.97,1.42-1.81,2.16-2.76.84.34.56,1.04.13,1.79-.58,1.01-1.16,2.01-1.9,3.25.99-.78,3.11-3.64,3.22-4.37.08-.5,0-1.03-.17-1.41-.24-.55-.63-.99-.93-1.43-.88.57-1.74,1.23-2.63,1.64-2.11,1-3.9,2.74-5.76,4.25-2.94,2.39-5.83,4.79-8.13,8.02-1.17,1.65-2.56,3.14-3.87,4.67-.76.89-1.62,1.74-2.26,2.69-1.4,2.07-2.59,4.19-3.1,6.53-.12.56-.51,1.29-.96,1.71-3.03,2.79-6.17,5.4-9.59,8.1,5.63-8.11,10.37-16.25,14.46-24.64,2.04-.49,3.46-2.25,4.83-3.92,1.5-1.83,2.49-3.97,3.07-6.15,1.23-4.63,2.18-9.27,2.97-13.9.07-.44.13-.89.25-1.32.64-2.27,1.36-4.54,1.77-6.82.21-1.17.08-2.4-.18-3.47-.4-1.67-1.51-1.76-2.98-.6-.98.77-1.72,1.74-2.22,2.87-1.01,2.3-2.03,4.58-3.04,6.87-1.01,2.28-1.98,4.58-3.02,6.84-1.52,3.29-2.8,6.59-3.15,10.03-.23,2.34-.23,4.67-.39,7.03-.01.17,0,.41.11.49,1.02.84.33,2-.17,3.14-1.68,3.78-3.42,7.57-5.48,11.25-1.63,2.92-3.53,5.73-5.45,8.53-.19.27-.46.5-.97,1.05.22-.79.35-1.28.48-1.77.53-2.06,1.12-4.13,1.44-6.17.41-2.59.49-5.14.77-7.69.13-1.16.55-2.37.89-3.55,1.38-4.69,2.12-9.37,3.89-13.99.86-2.24,1.39-4.57,1.8-6.86.42-2.36.59-4.71.73-7.04.09-1.47-.12-2.86-.75-4.09-.73-1.43-2.06-1.68-3.42-.56-.66.54-1.3,1.29-1.63,2.05-.99,2.24-1.95,4.5-2.86,6.78-.74,1.83-1.34,3.72-2.01,5.58-.95,2.66-1.57,5.37-1.65,8.1-.04,1.33.23,2.68.61,3.9.64,2.05,1.12,4.21,2.52,5.84.71.82.87,1.85.76,3.1-.3,3.48-.53,6.97-1.01,10.52-.39,2.92-1.62,5.81-2.94,8.67-.35.75-.94,1.48-1.51,2.15-.93,1.1-1.92,2.17-2.96,3.17-4.13,3.97-8.45,7.74-13.16,11.5.96-1.42,1.73-2.62,2.5-3.82,1.12-1.74,1.81-3.5,2.21-5.38.33-1.53,1.17-3.16,2.02-4.64,2.22-3.83,4.54-7.63,6.35-11.56,1.22-2.64,2.48-5.32,2.48-8.15,0-1.9.5-3.92.8-5.87.31-2.01.14-3.88-.47-5.63-.3-.87-.82-1.45-1.89-1.37-1.04.07-1.67.61-2.2,1.52-1.47,2.52-2.57,5.15-3.8,7.78-1,2.14-2.05,4.28-3.35,6.31-1.76,2.73-2.53,5.42-2.31,8.4.15,2.07.67,3.97,1.08,5.94.94,4.52.73,9.27-2.82,14.1-.97,1.32-1.82,2.7-2.8,4.02-.23.31-.61.55-.94.79-3.18,2.3-6.43,4.5-9.73,6.6-2.43,1.55-4.91,3.04-7.39,4.5-1.6.94-3.2,1.84-4.97,2.36-.84.25-2.06.35-2.21,1.61-.01.12-.26.3-.42.4-2.32,1.41-4.69,2.77-7.28,3.87.97-1.26,1.94-2.51,2.82-3.8.9-1.31,1.82-2.63,2.51-3.99,1.24-2.46,3.36-4.02,5.81-5.27,2.28-1.16,4.65-2.13,6.91-3.36,1.39-.75,2.69-1.7,3.98-2.62.87-.62,1.64-1.36,2.5-1.98,2.55-1.85,4.58-4.16,6.59-6.47.72-.83,1.49-1.64,2.23-2.46,1-1.12,1.92-2.25,2.22-3.68.26-1.2-.22-1.95-.89-2.61-.7-.69-1.47-.72-2.53-.06-1.39.86-2.78,1.74-4.09,2.7-1.42,1.04-2.95,1.89-4.23,3.17-.58.58-1.59.78-2.4,1.13-.09-.09-.17-.18-.26-.28.33-.61.62-1.23.98-1.82,1.28-2.13,2.38-4.28,2.91-6.61.49-2.1.53-3.98-.74-5.67-1.24-.45-2.43.24-3.49,1.08-1.61,1.28-3.07,2.69-4.23,4.41-1.65,2.46-3.53,4.8-5.36,7.2-1.34,1.75-2.43,3.62-3.06,5.68-.13.44-.26.88-.39,1.31-.54,1.72-1.34,3.14-3.32,4.18-1.64.86-3.17,2.27-4.44,3.65-.95,1.04-1.54,2.46-2.01,3.75-.62,1.67-.96,3.4-1.46,5.11-.03.11-.09.26-.04.33.88,1.09-.36,2.06-.88,3.08-1.28,2.54-2.68,5.07-3.95,7.64-.63,1.27-1.49,2.15-2.95,2.69-1.42.52-2.85.99-4.27,1.49-1.04.36-2.1.71-3.12,1.15-4.86,2.09-9.9,3.7-15.09,4.49-.67.1-1.37.26-2.01.5-3.85,1.42-7.83,1.66-11.78,2.01-.6.05-1.18-.15-1.78-.13-.58.01-1.18.14-1.77.25-1.14.22-2.29.59-3.42.64-1.52.07-2.96.14-4.49.59-.94.28-2.03.09-3.05.12-.85.02-1.7.05-2.76.07.49.95,1.38.93,2.15.93,3.86.02,7.74-.18,11.59-.35,2.77-.12,5.54-.63,8.23.01,2.49.6,5.23.74,7.9,1.01,2.65.27,5.31.56,8.03.64,2.11.06,4.29-.12,6.45-.24.41-.02.95-.19,1.2-.06,1.23.65,2.79.45,4.32.42,1.37-.03,2.54.29,3.75.69,3.77,1.26,7.65,2.57,12.54,1.91,1.59-.22,3.2-.51,4.8-.93,4.06-1.08,7.92-3.07,11.74-4.96,3.45-1.7,6.53-3.99,8.96-6.8,1.46-1.7,1.23-2.75-.81-2.51-1.8.21-3.78.68-5.59,1.4-6.08,2.43-12.05,3.39-17.71,2.95-3.2-.25-6.52-.04-9.87.29-2.14.21-4.05,1.15-5.91,2.33-1.59,1.01-3.04,2.23-5.1,2.61-.66.12-1.33.94-2.17,1.56ZM267.59,319.59c-.74,2.85-2.7,5.32-4.57,7.82-1.89,2.54-4.24,4.74-7.64,6.01,1.29-2.88,2.77-5.61,4.35-8.31.27-.46.76-.85,1.17-1.26,1.88-1.9,4.41-2.84,6.7-4.26Z"/><path class="cls-3" d="M302.31,321.4c-.3.24-.59.48-.89.72.18.14.34.41.55.38.26-.04.58-.34.87-.52-.18-.19-.36-.37-.54-.56,0,0,.01,0,.02,0Z"/><path class="cls-3" d="M329.33,298.1c-.79.68-1,1.22-.2,1.53.4.15.83.25,1.25.37q.63-.92-1.05-1.9Z"/><path class="cls-3" d="M326.47,301.67c-.22,0-.38-.05-.44.01-.39.34-.75.7-1.13,1.06.14.11.28.36.43.31.7-.23,1.1-.71,1.14-1.38Z"/><path class="cls-3" d="M314.76,308.47c.55-.12.89-.15,1.21-.3.09-.04.13-.42.19-.64-.33.03-.66.01-.98.12-.1.03-.21.4-.41.82Z"/><path class="cls-3" d="M320.47,305.02c.06.33.03.66.14.67.25.01.56-.13.85-.21,0-.26.09-.63-.05-.73-.12-.09-.52.14-.94.27Z"/><path class="cls-3" d="M260.57,347.14c.41.39.58.79.88.78,1.19-.05,2.17-.66,3.25-1.85-1.43.38-2.49.66-4.13,1.07Z"/><path class="cls-3" d="M269.7,345.68c-1.42.39-2.43.65-3.52.93.95,1.01,1.87.83,3.52-.93Z"/><path class="cls-3" d="M271.16,347.25c-.08.47-.24.82-.14,1.03.07.14.7.17.77.1.27-.27.58-.68.53-.9-.04-.17-.61-.13-1.16-.22Z"/><path class="cls-3" d="M259.58,350.68c.07-.02.14-.05.21-.07.6-.19,1.19-.42,1.04-1-.02-.1-.33-.18-.49-.14-.98.27-.89.75-.71,1.23-.02,0-.04,0-.06-.01Z"/><path class="cls-3" d="M305.5,324.04c.11.14.15.29.23.29.45-.05.92-.13,1.38-.2,0-.21.12-.53,0-.61-.43-.29-.95-.25-1.61.53Z"/><path class="cls-3" d="M314.08,322.51c.61.21,1.03.74,2.03-.02-.61-1.03-.79-1.02-2.03.02Z"/><path class="cls-3" d="M323.63,319.68c.32-1.05.5-1.67.71-2.39-1,.4-1.27.97-1.34,1.52-.03.25.28.41.63.87Z"/><path class="cls-3" d="M321.99,318.06c-.57.61-.87.83-.94,1.03-.12.33-.25.89-.1.94.57.18.84-.38,1.01-.84.08-.23.02-.44.02-1.13Z"/><path class="cls-3" d="M274.58,307.67c0,.42-.07.67,0,.87.02.06.46.04.56-.06.13-.13.19-.43.12-.56-.06-.12-.34-.13-.69-.25Z"/><path class="cls-3" d="M281.89,295.59c-.34.02-.64-.03-.7.06-.15.2-.22.47-.23.7,0,.06.48.15.54.08.17-.19.23-.46.39-.84Z"/><path class="cls-3" d="M279.57,300.96c-.08-.57-.12-.85-.16-1.14-.11.03-.25.04-.32.11-.47.46-.19.66.49,1.03Z"/><path class="cls-3" d="M277.26,304.69c.18-.28.37-.56.53-.85,0-.02-.21-.16-.24-.14-.27.22-.53.45-.79.68.17.1.33.2.5.3Z"/><path class="cls-3" d="M274.08,310.02c.05.52,0,.8.11.92.09.1.41.07.61,0,.09-.03.23-.34.19-.42-.07-.13-.29-.17-.9-.5Z"/><path class="cls-3" d="M277.7,306.59c-.79,0-1.12.12-1.05.64.01.07.2.16.21.15.24-.21.47-.44.84-.79Z"/><path class="cls-3" d="M302.73,280.32c-.73.45-.83.87-.46,1.44.91-.38.85-.83.46-1.44Z"/><path class="cls-3" d="M302.44,283.77c.47-.09.79-.06.96-.2.17-.15.18-.47.25-.72-.25,0-.54-.07-.73.06-.19.12-.26.45-.48.87Z"/><path class="cls-3" d="M304.12,278.01c-.86.69-.98,1.05-.6,1.39.07.06.42-.04.42-.07.07-.33.1-.67.17-1.32Z"/><path class="cls-3" d="M335.26,250.34c-1.05-.25-1.47.55-1.88,1.19-.09.14.16.49.31.9.6-.79,1.04-1.38,1.57-2.1Z"/><path class="cls-3" d="M331.63,257.01c.23.02.28.04.34.03.56-.15.98-.49,1.03-1.12.01-.14-.27-.37-.42-.34-.69.17-.92.69-.94,1.43Z"/><path class="cls-3" d="M336.36,246.48c-.17.18-.4.35-.49.55-.07.17,0,.42.09.56.04.06.36,0,.43-.11.11-.16.12-.39.17-.59-.07-.14-.14-.28-.2-.42Z"/><path class="cls-3" d="M336.03,243.9c.1.33.16.55.23.77.19-.11.49-.2.53-.33.07-.23-.03-.48-.06-.72-.19.08-.39.15-.7.28Z"/><path class="cls-3" d="M306.1,316.67c-1.18.31-1.41.89-1.51,1.73,1.16-.27,1.34-.9,1.51-1.73Z"/><path class="cls-3" d="M300.25,318.25c-.09.85-.2,1.15-.11,1.34.04.09.56.03.67-.09.2-.22.41-.62.35-.79-.07-.2-.44-.24-.91-.45Z"/><path class="cls-3" d="M319.71,254.07c-.17-.37-.34-.74-.59-1.27-.78,1.03-.43,1.33.1,1.57.16-.1.32-.2.49-.3Z"/><path class="cls-3" d="M320.19,248.94c.21.27.29.53.41.52.23,0,.48-.16.72-.25-.1-.2-.15-.51-.31-.57-.16-.06-.43.14-.82.29Z"/><path class="cls-3" d="M320.73,253.16c-.09-.22-.19-.44-.3-.7-.67.36-.68.82-.38,1.1.33.31.54-.12.68-.45,0,.02,0,.03,0,.05Z"/><path class="cls-3" d="M317.81,259.36c.06.34.03.61.14.68.12.08.37-.02.57-.05,0-.19.07-.45-.02-.54-.1-.1-.35-.06-.69-.09Z"/><path class="cls-3" d="M317.93,255.71c-.27.06-.5.05-.54.13-.11.18-.13.4-.18.61.19-.01.44.05.54-.06.12-.12.11-.38.19-.68Z"/><path class="cls-3" d="M318.46,256.81c.09.22.13.42.24.56.03.04.39-.12.4-.19.03-.2-.04-.39-.08-.58-.15.06-.3.12-.56.22Z"/><path class="cls-3" d="M271.18,308.34c.45-.09.81-.07.92-.2.14-.17.07-.46.08-.7-.2.02-.47-.03-.58.08-.17.16-.22.42-.42.82Z"/><path class="cls-3" d="M306.49,284.38c1.02.22,1.39-.15,1.53-.72.04-.16-.27-.33-.41-.49-.32.35-.65.7-1.12,1.21Z"/><path class="cls-3" d="M308.64,279.77c.07.37.11.6.15.84.2-.08.49-.11.58-.25.1-.16.11-.48,0-.59-.09-.1-.38,0-.74,0Z"/><path class="cls-3" d="M287.31,306.24c.18-.44.36-.89.56-1.39-.73-.12-1.23.19-1.44.69-.22.53.18.73.88.7Z"/><path class="cls-3" d="M280.64,309.15c.6.13,1.1-.07,1.26-.67.04-.16-.41-.52-.61-.47-.69.16-.83.62-.65,1.14Z"/><path class="cls-3" d="M284.05,308.11c-.68.17-1.1.43-1.07,1.19.82-.15,1.33-.36,1.07-1.19Z"/><path class="cls-3" d="M265.06,314.54c-.39.03-.63-.01-.78.08-.17.1-.25.34-.37.51.23.04.48.15.7.09.13-.03.23-.33.44-.68Z"/><path class="cls-3" d="M265.79,312.54c-.08.34-.13.54-.17.73.2-.01.42.02.6-.06.11-.05.24-.36.19-.41-.11-.12-.33-.15-.62-.26Z"/><path class="cls-1" d="M168,231.45c-24.27-66.93-1.51-118.94,42.69-140.39-14.72,34.76-3.02,70.17,35.1,106.24,46.5,41.46,25.64,121.89-36.99,130.9,31.79-45.27,29.57-81-6.64-107.19,29.54,81.25-31.64,43.65-22.77,108.14-55.87-20.24-64.23-68.05-30.18-142.35,1.17,20.88,5.74,36.12,18.8,44.64"/><path class="cls-2" d="M316.12,83.03c42.97,33.5,70.61,85.75,70.61,144.45,0,101.09-81.95,183.04-183.04,183.04S20.64,328.57,20.64,227.48c0-11.78,1.11-23.29,3.24-34.45"/></svg>